<?xml version="1.0" standalone="no"?>
<!DOCTYPE svg PUBLIC "-//W3C//DTD SVG 20010904//EN"
 "http://www.w3.org/TR/2001/REC-SVG-20010904/DTD/svg10.dtd">
<svg version="1.0" xmlns="http://www.w3.org/2000/svg"
 width="500.000000pt" height="500.000000pt" viewBox="0 0 500.000000 500.000000"
 preserveAspectRatio="xMidYMid meet">

<g transform="translate(0.000000,500.000000) scale(0.100000,-0.100000)"
fill="#000000" stroke="none">
<path d="M0 2500 l0 -2500 2500 0 2500 0 0 2500 0 2500 -2500 0 -2500 0 0
-2500z m2646 1439 c197 -101 264 -140 264 -153 0 -17 -20 -30 -161 -104 -63
-33 -133 -71 -156 -84 l-42 -23 -65 35 c-35 19 -64 39 -63 45 1 5 -6 10 -15
10 -9 0 -20 4 -24 8 -4 4 2 7 14 7 12 0 22 5 22 10 0 6 -8 10 -17 10 -9 0 -14
3 -10 6 3 4 20 2 37 -4 29 -11 30 -10 24 14 -7 28 19 99 48 127 19 18 26 63 8
52 -5 -3 -10 -2 -10 4 0 17 17 22 44 11 16 -6 35 -6 48 0 13 5 18 9 12 9 -5 1
-19 9 -30 19 -29 28 -50 32 -73 16 -11 -8 -21 -11 -21 -7 0 8 49 42 61 43 3 0
50 -23 105 -51z m-76 -14 c14 -16 10 -18 -14 -9 -9 3 -16 10 -16 15 0 14 16
11 30 -6z m796 -346 c170 -89 192 -111 141 -135 -12 -5 -94 -49 -182 -96 -88
-47 -241 -127 -340 -178 -99 -51 -237 -123 -306 -161 -70 -38 -129 -69 -133
-69 -3 0 -74 37 -156 83 -83 45 -163 88 -178 96 -64 32 -113 63 -108 68 3 3
18 -4 34 -16 16 -11 32 -17 36 -13 4 4 14 -1 21 -11 13 -18 14 -17 20 2 3 12
4 25 0 30 -3 5 -1 12 5 16 5 3 10 19 10 36 0 23 4 29 21 29 18 0 20 -4 15 -27
-5 -28 -5 -28 9 2 8 17 14 41 15 55 0 30 33 62 55 54 8 -4 15 -1 15 5 0 6 -4
11 -9 11 -6 0 -17 13 -27 29 -12 21 -22 27 -38 23 -17 -4 -19 -2 -9 8 12 13
26 10 73 -19 31 -19 186 -91 196 -91 6 0 78 37 160 81 202 110 496 259 513
259 7 0 74 -32 147 -71z m-1056 -201 c0 -6 -6 -5 -15 2 -8 7 -15 14 -15 16 0
2 7 1 15 -2 8 -4 15 -11 15 -16z m-25 -48 c-3 -5 -10 -10 -16 -10 -5 0 -9 5
-9 10 0 6 7 10 16 10 8 0 12 -4 9 -10z m1617 -99 c60 -6 94 -16 151 -45 129
-65 208 -148 263 -277 31 -74 33 -91 40 -414 l5 -240 -35 -98 c-75 -211 -118
-249 -551 -487 -521 -286 -1115 -610 -1172 -638 l-58 -30 -65 33 c-219 110
-646 360 -642 375 1 6 -2 9 -7 6 -5 -4 -22 6 -36 20 -24 24 -25 28 -11 36 9 5
16 18 16 28 0 10 5 22 10 25 6 3 10 28 10 55 0 33 5 50 15 54 9 3 15 18 15 40
0 19 6 37 13 40 6 3 1 3 -13 0 -24 -6 -24 -5 -8 12 17 17 19 17 60 -5 24 -13
75 -40 113 -59 39 -20 86 -45 105 -57 89 -55 409 -225 424 -225 14 0 540 282
861 462 44 25 168 91 275 148 269 142 310 172 350 255 18 36 20 64 20 273 0
256 -3 272 -61 330 -42 42 -97 71 -151 78 -60 8 -148 -23 -293 -106 -66 -37
-174 -97 -240 -134 -66 -36 -132 -73 -147 -83 -26 -16 -28 -15 -160 49 -73 37
-157 76 -185 88 -29 13 -53 25 -53 29 0 8 96 59 510 274 285 147 457 213 525
201 17 -3 65 -9 107 -13z m-1755 -17 c-3 -3 -12 -4 -19 -1 -8 3 -5 6 6 6 11 1
17 -2 13 -5z m583 -623 c96 -49 175 -94 175 -100 0 -16 -333 -201 -360 -201
-18 0 -98 41 -284 145 -39 22 -71 45 -71 52 0 14 329 194 355 193 5 -1 89 -40
185 -89z m-460 -429 c107 -55 209 -108 225 -116 17 -9 35 -16 42 -16 6 0 142
65 300 144 398 198 341 183 459 127 161 -76 204 -101 204 -115 0 -22 -26 -37
-385 -231 -181 -98 -364 -197 -405 -219 -148 -82 -168 -90 -193 -74 -12 8
-103 59 -202 113 -238 129 -276 150 -440 241 -77 42 -165 90 -195 106 -67 37
-87 55 -75 67 6 5 77 43 159 85 l149 75 81 -43 c45 -24 169 -89 276 -144z
m-427 -414 c-6 -11 -31 -10 -37 1 -3 5 5 8 18 7 13 0 22 -4 19 -8z"/>
<path d="M2471 3774 c-12 -27 -11 -28 4 -12 10 9 16 21 13 28 -2 7 -10 -1 -17
-16z"/>
</g>
</svg>
