<?xml version="1.0" standalone="no"?>
<!DOCTYPE svg PUBLIC "-//W3C//DTD SVG 20010904//EN"
 "http://www.w3.org/TR/2001/REC-SVG-20010904/DTD/svg10.dtd">
<svg version="1.0" xmlns="http://www.w3.org/2000/svg"
 width="500.000000pt" height="500.000000pt" viewBox="0 0 500.000000 500.000000"
 preserveAspectRatio="xMidYMid meet">

<g transform="translate(0.000000,500.000000) scale(0.100000,-0.100000)"
fill="#000000" stroke="none">
<path d="M2503 3956 c-13 -7 -20 -16 -15 -21 4 -5 1 -5 -5 -1 -7 4 -36 -6 -65
-22 -29 -16 -84 -46 -123 -67 -87 -46 -103 -60 -90 -81 10 -15 116 -63 147
-66 9 -1 15 -5 12 -9 -2 -4 5 -10 16 -14 13 -4 31 1 50 15 36 26 37 30 8 23
-19 -4 -20 -3 -7 6 9 6 22 24 29 41 7 16 17 27 23 23 5 -3 7 -2 4 4 -8 13 17
83 34 94 11 7 10 9 -4 9 -10 0 -15 5 -12 10 4 6 15 8 24 5 27 -8 45 18 31 44
-12 23 -25 25 -57 7z"/>
<path d="M2585 3920 c-8 -13 15 -13 35 0 12 8 11 10 -7 10 -12 0 -25 -4 -28
-10z"/>
<path d="M2435 3670 c-3 -5 -1 -10 4 -10 6 0 11 5 11 10 0 6 -2 10 -4 10 -3 0
-8 -4 -11 -10z"/>
<path d="M1829 3617 c-101 -54 -135 -73 -146 -83 -6 -6 -26 -17 -45 -25 -75
-30 -71 -52 16 -95 28 -13 69 -36 91 -49 22 -13 69 -39 105 -56 36 -17 105
-51 153 -75 49 -24 94 -44 101 -44 7 0 26 -10 42 -22 15 -13 25 -17 20 -10 -4
7 -2 12 4 12 6 0 13 -6 16 -14 3 -7 14 -11 28 -9 18 4 22 10 18 29 -2 13 -1
39 2 58 6 33 8 35 33 25 25 -9 25 -8 20 21 -5 20 -2 30 6 31 6 1 1 5 -13 9
-24 8 -23 8 8 9 17 1 32 6 32 11 0 6 7 10 16 10 8 0 13 4 9 10 -3 5 -13 6 -23
3 -14 -6 -15 -4 -4 9 10 13 10 18 -2 29 -35 32 -44 37 -50 31 -4 -3 -10 -2
-14 4 -9 14 -67 44 -94 49 -12 3 -23 7 -27 11 -3 4 2 4 12 1 9 -4 17 -3 17 2
0 4 -18 13 -40 20 -22 7 -38 16 -36 20 3 4 0 8 -7 8 -21 0 -107 41 -107 51 0
9 -31 24 -76 36 -12 4 -39 -3 -65 -17z"/>
<path d="M1156 3225 c-186 -48 -331 -187 -391 -375 -27 -83 -34 -558 -11 -650
45 -174 136 -284 321 -385 28 -15 55 -31 60 -35 6 -4 51 -29 100 -55 50 -26
117 -62 150 -80 233 -125 336 -175 346 -169 8 4 9 3 5 -4 -8 -13 15 -26 59
-36 l30 -6 -27 15 c-27 15 -28 15 -8 35 11 11 20 26 20 33 0 8 9 22 20 32 11
10 20 23 20 29 0 6 -4 4 -10 -4 -5 -8 -11 -12 -15 -9 -3 3 6 22 20 42 13 21
21 37 17 37 -4 0 -8 11 -8 25 -1 13 1 23 5 22 3 -1 7 1 9 6 6 18 1 27 -15 27
-15 0 -16 2 -3 10 11 7 7 10 -19 10 -29 0 -32 2 -21 15 9 11 10 15 1 15 -7 0
-19 7 -28 15 -8 8 -19 13 -24 10 -5 -4 -9 -2 -9 2 0 5 -24 21 -52 36 -29 16
-69 38 -88 49 -35 22 -59 35 -295 167 -160 90 -202 124 -240 192 l-30 54 0
225 c0 215 1 227 23 272 47 95 133 145 237 136 52 -5 104 -28 305 -135 63 -34
158 -83 210 -110 52 -27 107 -57 122 -67 31 -20 65 -16 107 13 14 10 67 39
116 66 50 26 96 53 104 60 19 18 7 43 -26 58 -30 13 -125 68 -133 77 -3 3 -14
10 -25 16 -11 6 -51 28 -90 50 -38 21 -101 55 -140 77 -116 63 -327 165 -380
182 -71 23 -244 29 -319 10z"/>
</g>
</svg>
